<svg xmlns="http://www.w3.org/2000/svg" width="80" height="81" viewBox="0 0 80 81" fill="none">
  <circle cx="39.9998" cy="40.4998" r="2.33333" fill="currentColor" stroke="currentColor" stroke-width="2"/>
  <path d="M55.6668 40.4998C55.6668 49.583 53.8239 57.7568 50.8909 63.6229C47.9279 69.5487 44.0197 72.8332 40.0002 72.8332C35.9806 72.8332 32.0724 69.5487 29.1095 63.6229C26.1765 57.7568 24.3335 49.583 24.3335 40.4998C24.3335 31.4167 26.1765 23.2429 29.1095 17.3768C32.0724 11.451 35.9806 8.1665 40.0002 8.1665C44.0197 8.1665 47.9279 11.451 50.8909 17.3768C53.8239 23.2429 55.6668 31.4167 55.6668 40.4998Z" stroke="#121212" stroke-width="2"/>
  <path d="M47.8333 54.0671C39.9671 58.6087 31.9669 61.0995 25.4202 61.4925C18.8068 61.8894 14.0083 60.147 11.9985 56.666C9.98874 53.185 10.8791 48.1581 14.5295 42.6292C18.1432 37.1562 24.3004 31.4732 32.1667 26.9316C40.0329 22.39 48.0331 19.8992 54.5798 19.5062C61.1932 19.1093 65.9917 20.8517 68.0015 24.3327C70.0113 27.8137 69.1209 32.8406 65.4705 38.3695C61.8568 43.8425 55.6996 49.5255 47.8333 54.0671Z" stroke="#121212" stroke-width="2"/>
  <path d="M47.8333 26.9319C39.9671 22.3904 31.9669 19.8995 25.4202 19.5066C18.8068 19.1096 14.0083 20.852 11.9985 24.333C9.98874 27.814 10.8791 32.8409 14.5295 38.3698C18.1432 43.8429 24.3004 49.5258 32.1667 54.0674C40.0329 58.609 48.0331 61.0998 54.5798 61.4928C61.1932 61.8897 65.9917 60.1474 68.0015 56.6663C70.0113 53.1853 69.1209 48.1585 65.4705 42.6296C61.8568 37.1565 55.6996 31.4735 47.8333 26.9319Z" stroke="#121212" stroke-width="2"/>
</svg>