<svg width="18" height="19" viewBox="0 0 18 19" fill="none" xmlns="http://www.w3.org/2000/svg">
<g id="Facebook" clip-path="url(#clip0_1091_2025)">
<path id="Vector" d="M9 0.5C4.02948 0.5 0 4.52948 0 9.5C0 13.7206 2.90592 17.2623 6.82596 18.235V12.2504H4.97016V9.5H6.82596V8.31488C6.82596 5.25164 8.21232 3.8318 11.2198 3.8318C11.79 3.8318 12.7739 3.94376 13.1764 4.05536V6.54836C12.964 6.52604 12.595 6.51488 12.1367 6.51488C10.661 6.51488 10.0908 7.07396 10.0908 8.52728V9.5H13.0306L12.5255 12.2504H10.0908V18.4341C14.5472 17.8959 18.0004 14.1015 18.0004 9.5C18 4.52948 13.9705 0.5 9 0.5Z" fill="currentColor"/>
</g>
<defs>
<clipPath id="clip0_1091_2025">
<rect width="18" height="18" fill="currentColor" transform="translate(0 0.5)"/>
</clipPath>
</defs>
</svg>
