<svg width="18" height="19" viewBox="0 0 18 19" fill="none" xmlns="http://www.w3.org/2000/svg">
<g id="Instagram" clip-path="url(#clip0_1091_2029)">
<path id="Vector" d="M9 2.1207C11.4047 2.1207 11.6895 2.13125 12.6352 2.17344C13.5141 2.21211 13.9887 2.35977 14.3051 2.48281C14.7234 2.64453 15.0258 2.84141 15.3387 3.1543C15.6551 3.4707 15.8484 3.76953 16.0102 4.18789C16.1332 4.5043 16.2809 4.98242 16.3195 5.85781C16.3617 6.80703 16.3723 7.0918 16.3723 9.49297C16.3723 11.8977 16.3617 12.1824 16.3195 13.1281C16.2809 14.007 16.1332 14.4816 16.0102 14.798C15.8484 15.2164 15.6516 15.5187 15.3387 15.8316C15.0223 16.148 14.7234 16.3414 14.3051 16.5031C13.9887 16.6262 13.5105 16.7738 12.6352 16.8125C11.6859 16.8547 11.4012 16.8652 9 16.8652C6.59531 16.8652 6.31055 16.8547 5.36484 16.8125C4.48594 16.7738 4.01133 16.6262 3.69492 16.5031C3.27656 16.3414 2.97422 16.1445 2.66133 15.8316C2.34492 15.5152 2.15156 15.2164 1.98984 14.798C1.8668 14.4816 1.71914 14.0035 1.68047 13.1281C1.63828 12.1789 1.62773 11.8941 1.62773 9.49297C1.62773 7.08828 1.63828 6.80351 1.68047 5.85781C1.71914 4.97891 1.8668 4.5043 1.98984 4.18789C2.15156 3.76953 2.34844 3.46719 2.66133 3.1543C2.97773 2.83789 3.27656 2.64453 3.69492 2.48281C4.01133 2.35977 4.48945 2.21211 5.36484 2.17344C6.31055 2.13125 6.59531 2.1207 9 2.1207ZM9 0.5C6.55664 0.5 6.25078 0.510547 5.29102 0.552734C4.33477 0.594922 3.67734 0.749609 3.10781 0.971094C2.51367 1.20312 2.01094 1.50898 1.51172 2.01172C1.00898 2.51094 0.703125 3.01367 0.471094 3.6043C0.249609 4.17734 0.0949219 4.83125 0.0527344 5.7875C0.0105469 6.75078 0 7.05664 0 9.5C0 11.9434 0.0105469 12.2492 0.0527344 13.209C0.0949219 14.1652 0.249609 14.8227 0.471094 15.3922C0.703125 15.9863 1.00898 16.4891 1.51172 16.9883C2.01094 17.4875 2.51367 17.7969 3.1043 18.0254C3.67734 18.2469 4.33125 18.4016 5.2875 18.4437C6.24727 18.4859 6.55312 18.4965 8.99648 18.4965C11.4398 18.4965 11.7457 18.4859 12.7055 18.4437C13.6617 18.4016 14.3191 18.2469 14.8887 18.0254C15.4793 17.7969 15.982 17.4875 16.4813 16.9883C16.9805 16.4891 17.2898 15.9863 17.5184 15.3957C17.7398 14.8227 17.8945 14.1687 17.9367 13.2125C17.9789 12.2527 17.9895 11.9469 17.9895 9.50352C17.9895 7.06016 17.9789 6.7543 17.9367 5.79453C17.8945 4.83828 17.7398 4.18086 17.5184 3.61133C17.2969 3.01367 16.991 2.51094 16.4883 2.01172C15.9891 1.5125 15.4863 1.20312 14.8957 0.974609C14.3227 0.753125 13.6688 0.598437 12.7125 0.55625C11.7492 0.510547 11.4434 0.5 9 0.5Z" fill="currentColor"/>
<path id="Vector_2" d="M9 4.87695C6.44766 4.87695 4.37695 6.94766 4.37695 9.5C4.37695 12.0523 6.44766 14.123 9 14.123C11.5523 14.123 13.623 12.0523 13.623 9.5C13.623 6.94766 11.5523 4.87695 9 4.87695ZM9 12.4988C7.34414 12.4988 6.00117 11.1559 6.00117 9.5C6.00117 7.84414 7.34414 6.50117 9 6.50117C10.6559 6.50117 11.9988 7.84414 11.9988 9.5C11.9988 11.1559 10.6559 12.4988 9 12.4988Z" fill="currentColor"/>
<path id="Vector_3" d="M14.8852 4.69404C14.8852 5.2917 14.4 5.77334 13.8059 5.77334C13.2082 5.77334 12.7266 5.28819 12.7266 4.69404C12.7266 4.09639 13.2117 3.61475 13.8059 3.61475C14.4 3.61475 14.8852 4.0999 14.8852 4.69404Z" fill="currentColor"/>
</g>
<defs>
<clipPath id="clip0_1091_2029">
<rect width="18" height="18" fill="currentColor" transform="translate(0 0.5)"/>
</clipPath>
</defs>
</svg>