<svg width="19" height="19" viewBox="0 0 19 19" fill="none" xmlns="http://www.w3.org/2000/svg">
<g id="TikTok" clip-path="url(#clip0_1091_2035)">
<path id="Vector" d="M13.5159 0.5H10.3138V12.7608C10.3138 14.2218 9.08231 15.4218 7.5497 15.4218C6.0171 15.4218 4.78554 14.2218 4.78554 12.7608C4.78554 11.3261 5.98973 10.1522 7.46762 10.1V7.02175C4.21081 7.0739 1.5835 9.60435 1.5835 12.7608C1.5835 15.9435 4.26555 18.5 7.57708 18.5C10.8886 18.5 13.5706 15.9174 13.5706 12.7608V6.4739C14.7748 7.3087 16.2527 7.80435 17.8127 7.83045V4.75217C15.4043 4.67391 13.5159 2.79565 13.5159 0.5Z" fill="currentColor"/>
</g>
<defs>
<clipPath id="clip0_1091_2035">
<rect width="19" height="18" fill="currentColor" transform="translate(0 0.5)"/>
</clipPath>
</defs>
</svg>
