<svg width="365" height="43" viewBox="0 0 1162 131" fill="currentColor" xmlns="http://www.w3.org/2000/svg">
<g clip-path="url(#clip0_985_2286)">
<path d="M207.812 39.3389V71.4782C207.812 75.1422 206.991 78.3621 205.35 81.1294C203.709 83.8966 201.333 86.0148 198.231 87.4838C195.128 88.9528 191.453 89.6959 187.214 89.6959C180.82 89.6959 175.863 88.056 172.325 84.7849C168.786 81.5137 167.017 77.0383 167.017 71.3501V39.3474H177.521V69.7529C177.521 73.5792 178.291 76.3892 179.838 78.1742C181.376 79.9678 183.932 80.8561 187.487 80.8561C191.043 80.8561 193.427 79.9593 194.983 78.1572C196.538 76.355 197.308 73.528 197.308 69.6846V39.3474H207.812V39.3389Z" fill="currentColor"/>
<path d="M218.718 41.2093C218.718 37.8356 220.598 36.1445 224.359 36.1445C228.119 36.1445 230 37.8271 230 41.2093C230 42.815 229.53 44.0705 228.59 44.9673C227.649 45.8641 226.239 46.3082 224.359 46.3082C220.598 46.3082 218.718 44.6085 218.718 41.2093ZM229.53 89.004H219.162V51.0227H229.53V89.004Z" fill="currentColor"/>
<path d="M261.795 89.0041H251.256V48.1018H237.761V39.3389H275.291V48.1018H261.795V89.0041Z" fill="currentColor"/>
<path d="M340.419 89.0041H333.82L306.658 47.3246H306.384C306.743 52.2185 306.931 56.7025 306.931 60.7765V89.0041H301.598V39.3389H308.128L335.222 80.8475H335.496C335.453 80.2326 335.35 78.2682 335.188 74.9543C335.026 71.6405 334.974 69.2661 335.017 67.8398V39.3389H340.419V89.0041Z" fill="currentColor"/>
<path d="M385.393 70.3593C385.393 76.4319 383.863 81.1635 380.803 84.5798C377.744 87.9877 373.513 89.6958 368.12 89.6958C364.786 89.6958 361.829 88.9101 359.248 87.3556C356.667 85.7927 354.667 83.5464 353.265 80.6254C351.863 77.7044 351.154 74.2881 351.154 70.3678C351.154 64.2953 352.675 59.5722 355.709 56.1814C358.744 52.7992 362.966 51.0996 368.359 51.0996C373.752 51.0996 377.718 52.8334 380.786 56.301C383.855 59.7686 385.393 64.449 385.393 70.3678M357.009 70.3593C357.009 75.1166 357.957 78.7379 359.863 81.2318C361.769 83.7258 364.564 84.9727 368.256 84.9727C371.949 84.9727 374.752 83.7343 376.667 81.2489C378.581 78.7721 379.538 75.1422 379.538 70.3593C379.538 65.5764 378.581 62.0319 376.667 59.5722C374.752 57.1124 371.923 55.8825 368.188 55.8825C364.453 55.8825 361.709 57.0953 359.82 59.5209C357.94 61.9465 357 65.5593 357 70.3593" fill="currentColor"/>
<path d="M412.282 51.0918C413.94 51.0918 415.419 51.2285 416.735 51.5018L415.949 56.7373C414.41 56.3957 413.051 56.2249 411.872 56.2249C408.855 56.2249 406.282 57.4462 404.137 59.8974C401.992 62.3401 400.923 65.3892 400.923 69.0362V89.0133H395.282V51.7836H399.94L400.59 58.6761H400.863C402.248 56.2505 403.915 54.3886 405.863 53.0733C407.812 51.758 409.957 51.1003 412.291 51.1003" fill="currentColor"/>
<path d="M454.196 51.7748V55.3449L447.29 56.1563C447.923 56.9506 448.495 57.984 448.991 59.2652C449.487 60.5463 449.743 61.9897 449.743 63.5954C449.743 67.2423 448.495 70.1548 446 72.3242C443.504 74.4936 440.085 75.5868 435.735 75.5868C434.624 75.5868 433.581 75.4928 432.607 75.3135C430.205 76.5775 429.008 78.1747 429.008 80.1049C429.008 81.1213 429.427 81.8814 430.265 82.3597C431.102 82.8465 432.538 83.0942 434.581 83.0942H441.179C445.213 83.0942 448.316 83.9398 450.478 85.6394C452.641 87.339 453.726 89.8074 453.726 93.0443C453.726 97.161 452.068 100.304 448.76 102.473C445.453 104.634 440.624 105.719 434.282 105.719C429.41 105.719 425.649 104.814 423.017 103.003C420.376 101.192 419.06 98.6301 419.06 95.3248C419.06 93.0614 419.786 91.1056 421.239 89.4486C422.692 87.8002 424.726 86.6728 427.359 86.0835C426.41 85.6565 425.607 84.9903 424.966 84.0764C424.316 83.1711 424 82.1206 424 80.9163C424 79.5583 424.359 78.3711 425.085 77.3462C425.812 76.3298 426.957 75.3391 428.521 74.3911C426.598 73.5968 425.025 72.2473 423.812 70.3512C422.598 68.4466 421.991 66.2772 421.991 63.826C421.991 59.752 423.213 56.609 425.666 54.3969C428.111 52.1848 431.581 51.083 436.068 51.083C438.017 51.083 439.778 51.3136 441.333 51.7663H454.222L454.196 51.7748ZM424.487 95.2564C424.487 97.2721 425.333 98.8009 427.034 99.8429C428.735 100.885 431.171 101.406 434.342 101.406C439.077 101.406 442.581 100.697 444.863 99.2877C447.145 97.8699 448.282 95.9482 448.282 93.5312C448.282 91.5155 447.658 90.1148 446.41 89.3376C445.162 88.5518 442.82 88.1675 439.376 88.1675H432.607C430.042 88.1675 428.051 88.7824 426.624 90.0038C425.196 91.2251 424.478 92.9846 424.478 95.2735M427.547 63.6979C427.547 66.3029 428.282 68.2758 429.76 69.6082C431.231 70.9491 433.282 71.6153 435.914 71.6153C441.419 71.6153 444.171 68.942 444.171 63.5954C444.171 58.2488 441.384 55.2083 435.812 55.2083C433.162 55.2083 431.119 55.9257 429.692 57.352C428.265 58.7783 427.547 60.8965 427.547 63.7064" fill="currentColor"/>
<path d="M477.59 89.688C472.086 89.688 467.735 88.014 464.556 84.6575C461.376 81.3094 459.778 76.6546 459.778 70.6931C459.778 64.7316 461.256 59.9231 464.214 56.3957C467.171 52.8598 471.145 51.0918 476.128 51.0918C480.795 51.0918 484.487 52.6292 487.214 55.6953C489.932 58.7615 491.291 62.8099 491.291 67.8405V71.4105H465.624C465.735 75.7835 466.838 79.0973 468.94 81.3607C471.034 83.624 473.992 84.7599 477.795 84.7599C481.803 84.7599 485.769 83.9229 489.692 82.2489V87.2795C487.701 88.1421 485.812 88.7571 484.034 89.1329C482.256 89.5087 480.111 89.6966 477.59 89.6966M476.06 55.8149C473.068 55.8149 470.684 56.7886 468.906 58.7359C467.128 60.6832 466.077 63.3736 465.761 66.8241H485.239C485.239 63.2711 484.445 60.5465 482.863 58.6505C481.282 56.7629 479.009 55.8149 476.068 55.8149" fill="currentColor"/>
<path d="M524.94 78.8497C524.94 82.3172 523.649 84.9905 521.068 86.8695C518.487 88.7485 514.855 89.688 510.188 89.688C505.248 89.688 501.393 88.9023 498.632 87.3478V82.1123C500.427 83.0176 502.342 83.735 504.393 84.256C506.444 84.777 508.419 85.0332 510.325 85.0332C513.273 85.0332 515.538 84.5635 517.12 83.624C518.709 82.6845 519.504 81.2496 519.504 79.3279C519.504 77.876 518.872 76.6376 517.615 75.6041C516.359 74.5707 513.906 73.3579 510.256 71.9486C506.786 70.6589 504.325 69.5316 502.863 68.5664C501.402 67.6013 500.316 66.5081 499.598 65.2867C498.88 64.0654 498.53 62.6049 498.53 60.9053C498.53 57.8733 499.769 55.4733 502.239 53.7224C504.709 51.963 508.094 51.0918 512.402 51.0918C516.41 51.0918 520.333 51.9032 524.162 53.5345L522.154 58.1209C518.41 56.5836 515.026 55.8149 511.991 55.8149C509.316 55.8149 507.299 56.2334 505.94 57.0704C504.581 57.9074 503.897 59.0604 503.897 60.538C503.897 61.5373 504.154 62.3828 504.658 63.0832C505.171 63.7835 505.991 64.4497 507.12 65.0903C508.256 65.7223 510.427 66.6447 513.649 67.8405C518.068 69.4461 521.051 71.0689 522.607 72.7002C524.162 74.3315 524.931 76.3813 524.931 78.8497" fill="currentColor"/>
<path d="M575.12 89.0046L574 83.7092H573.726C571.872 86.0409 570.017 87.6209 568.171 88.4494C566.325 89.2779 564.017 89.6878 561.256 89.6878C557.564 89.6878 554.667 88.7398 552.573 86.8352C550.479 84.9306 549.427 82.2316 549.427 78.7213C549.427 71.2054 555.444 67.2595 567.479 66.9008L573.803 66.6958V64.3897C573.803 61.4688 573.171 59.3079 571.914 57.9158C570.658 56.5236 568.641 55.8318 565.88 55.8318C562.778 55.8318 559.265 56.7798 555.342 58.6844L553.607 54.3713C555.444 53.372 557.453 52.5948 559.641 52.0311C561.829 51.4674 564.017 51.1855 566.222 51.1855C570.667 51.1855 573.957 52.1677 576.094 54.1407C578.231 56.1136 579.308 59.2738 579.308 63.6211V89.0302H575.128L575.12 89.0046ZM562.367 85.033C565.88 85.033 568.641 84.0679 570.641 82.1462C572.649 80.2245 573.649 77.5256 573.649 74.058V70.6929L568.008 70.9321C563.521 71.0943 560.282 71.7861 558.299 73.0246C556.316 74.263 555.325 76.1762 555.325 78.7811C555.325 80.8224 555.94 82.3683 557.179 83.4359C558.419 84.5035 560.145 85.033 562.367 85.033Z" fill="currentColor"/>
<path d="M607.923 51.0918C609.581 51.0918 611.06 51.2285 612.376 51.5018L611.598 56.7373C610.06 56.3957 608.692 56.2249 607.521 56.2249C604.504 56.2249 601.932 57.4462 599.786 59.8974C597.641 62.3401 596.573 65.3892 596.573 69.0362V89.0133H590.932V51.7836H595.59L596.239 58.6761H596.513C597.897 56.2505 599.564 54.3886 601.513 53.0733C603.462 51.758 605.607 51.1003 607.94 51.1003" fill="currentColor"/>
<path d="M624.923 69.9493C625.897 68.5657 627.385 66.755 629.376 64.5173L641.41 51.7743H648.111L633.017 67.6348L649.162 89.004H642.333L629.179 71.4098L624.931 75.0739V89.004H619.359V36.1445H624.931V64.1671C624.931 65.4141 624.837 67.3358 624.658 69.9408H624.931L624.923 69.9493Z" fill="currentColor"/>
<path d="M667.923 85.0329C668.923 85.0329 669.88 84.956 670.812 84.8108C671.744 84.6656 672.479 84.5119 673.026 84.3496V88.6628C672.41 88.9532 671.513 89.2009 670.325 89.3888C669.137 89.5767 668.06 89.6791 667.111 89.6791C659.906 89.6791 656.299 85.887 656.299 78.3027V56.1562H650.966V53.4402L656.299 51.1L658.675 43.1484H661.94V51.7747H672.752V56.1562H661.94V78.0635C661.94 80.3013 662.47 82.0265 663.538 83.2308C664.607 84.435 666.068 85.0329 667.923 85.0329Z" fill="currentColor"/>
<path d="M679.991 41.6882C679.991 40.3985 680.307 39.4505 680.94 38.8526C681.572 38.2547 682.367 37.9473 683.316 37.9473C684.265 37.9473 685 38.2547 685.658 38.8611C686.316 39.4761 686.641 40.4156 686.641 41.6796C686.641 42.9437 686.307 43.8917 685.658 44.5152C685 45.1387 684.222 45.4462 683.316 45.4462C682.367 45.4462 681.572 45.1387 680.94 44.5152C680.307 43.8917 679.991 42.9437 679.991 41.6796M686.111 89.0046H680.47V51.7749H686.111V89.0046Z" fill="currentColor"/>
<path d="M722.111 78.8497C722.111 82.3172 720.82 84.9905 718.239 86.8695C715.658 88.7485 712.025 89.688 707.359 89.688C702.419 89.688 698.564 88.9023 695.803 87.3478V82.1123C697.598 83.0176 699.513 83.735 701.564 84.256C703.615 84.777 705.59 85.0332 707.496 85.0332C710.444 85.0332 712.709 84.5635 714.29 83.624C715.88 82.6845 716.675 81.2496 716.675 79.3279C716.675 77.876 716.043 76.6376 714.786 75.6041C713.53 74.5707 711.077 73.3579 707.427 71.9486C703.957 70.6589 701.496 69.5316 700.034 68.5664C698.572 67.6013 697.487 66.5081 696.769 65.2867C696.051 64.0654 695.701 62.6049 695.701 60.9053C695.701 57.8733 696.94 55.4733 699.41 53.7224C701.88 51.963 705.265 51.0918 709.573 51.0918C713.581 51.0918 717.504 51.9032 721.333 53.5345L719.325 58.1209C715.581 56.5836 712.196 55.8149 709.162 55.8149C706.487 55.8149 704.47 56.2334 703.111 57.0704C701.752 57.9074 701.068 59.0604 701.068 60.538C701.068 61.5373 701.325 62.3828 701.829 63.0832C702.342 63.7835 703.162 64.4497 704.29 65.0903C705.427 65.7223 707.598 66.6447 710.82 67.8405C715.239 69.4461 718.222 71.0689 719.778 72.7002C721.333 74.3315 722.102 76.3813 722.102 78.8497" fill="currentColor"/>
<path d="M736.863 69.9493C737.838 68.5657 739.325 66.755 741.316 64.5173L753.351 51.7743H760.043L744.949 67.6348L761.094 89.004H754.257L741.103 71.4098L736.855 75.0739V89.004H731.282V36.1445H736.855V64.1671C736.855 65.4141 736.769 67.3358 736.581 69.9408H736.855L736.863 69.9493Z" fill="currentColor"/>
<path d="M783.573 89.688C778.068 89.688 773.718 88.014 770.539 84.6575C767.351 81.3094 765.761 76.6546 765.761 70.6931C765.761 64.7316 767.239 59.9231 770.197 56.3957C773.154 52.8598 777.128 51.0918 782.111 51.0918C786.778 51.0918 790.47 52.6292 793.188 55.6953C795.906 58.7615 797.265 62.8099 797.265 67.8405V71.4105H771.598C771.709 75.7835 772.821 79.0973 774.915 81.3607C777.009 83.624 779.966 84.7599 783.769 84.7599C787.778 84.7599 791.744 83.9229 795.667 82.2489V87.2795C793.675 88.1421 791.786 88.7571 790.009 89.1329C788.231 89.5087 786.086 89.6966 783.564 89.6966M782.043 55.8149C779.051 55.8149 776.667 56.7886 774.889 58.7359C773.111 60.6832 772.06 63.3736 771.744 66.8241H791.222C791.222 63.2711 790.427 60.5465 788.846 58.6505C787.256 56.7629 784.992 55.8149 782.043 55.8149Z" fill="currentColor"/>
<path d="M830.282 51.7751V75.9287C830.282 78.9693 830.974 81.2326 832.359 82.7273C833.743 84.2219 835.906 84.965 838.846 84.965C842.743 84.965 845.598 83.8974 847.393 81.7707C849.196 79.644 850.094 76.1679 850.094 71.3423V51.7751H855.735V89.0048H851.077L850.265 84.0084H849.957C848.803 85.8447 847.196 87.2454 845.145 88.2191C843.094 89.1927 840.752 89.6796 838.128 89.6796C833.598 89.6796 830.196 88.6034 827.949 86.4511C825.692 84.2988 824.564 80.8568 824.564 76.1252V51.7666H830.273L830.282 51.7751Z" fill="currentColor"/>
<path d="M893.205 89.0043V64.919C893.205 61.887 892.513 59.6237 891.128 58.129C889.743 56.6343 887.581 55.8913 884.641 55.8913C880.743 55.8913 877.889 56.9418 876.077 59.0514C874.265 61.161 873.359 64.6371 873.359 69.4798V89.0128H867.718V51.7831H872.308L873.222 56.882H873.496C874.649 55.0457 876.273 53.628 878.359 52.6201C880.444 51.6123 882.769 51.1084 885.325 51.1084C889.812 51.1084 893.188 52.1931 895.453 54.3539C897.718 56.5148 898.855 59.9738 898.855 64.7311V89.0214H893.214L893.205 89.0043Z" fill="currentColor"/>
<path d="M909.966 41.6882C909.966 40.3985 910.282 39.4505 910.915 38.8526C911.547 38.2547 912.342 37.9473 913.291 37.9473C914.239 37.9473 914.983 38.2547 915.641 38.8611C916.299 39.4761 916.624 40.4156 916.624 41.6796C916.624 42.9437 916.291 43.8917 915.641 44.5152C914.983 45.1387 914.205 45.4462 913.291 45.4462C912.342 45.4462 911.547 45.1387 910.915 44.5152C910.282 43.8917 909.966 42.9437 909.966 41.6796M916.085 89.0046H910.444V51.7749H916.085V89.0046Z" fill="currentColor"/>
<path d="M936.205 89.0048L922.06 51.7751H928.111L936.137 73.8533C937.949 79.0205 939.017 82.3686 939.334 83.9059H939.607C939.855 82.7102 940.641 80.2163 941.966 76.4497C943.291 72.6832 946.265 64.4498 950.889 51.7666H956.94L942.795 88.9963H936.205V89.0048Z" fill="currentColor"/>
<path d="M978.667 89.688C973.162 89.688 968.812 88.014 965.632 84.6575C962.444 81.3094 960.854 76.6546 960.854 70.6931C960.854 64.7316 962.333 59.9231 965.29 56.3957C968.248 52.8598 972.222 51.0918 977.205 51.0918C981.872 51.0918 985.564 52.6292 988.29 55.6953C991.008 58.7615 992.367 62.8099 992.367 67.8405V71.4105H966.701C966.812 75.7835 967.923 79.0973 970.017 81.3607C972.111 83.624 975.068 84.7599 978.872 84.7599C982.88 84.7599 986.846 83.9229 990.769 82.2489V87.2795C988.778 88.1421 986.889 88.7571 985.111 89.1329C983.333 89.5087 981.188 89.6966 978.667 89.6966M977.137 55.8149C974.145 55.8149 971.761 56.7886 969.983 58.7359C968.205 60.6832 967.154 63.3736 966.837 66.8241H986.316C986.316 63.2711 985.521 60.5465 983.94 58.6505C982.35 56.7629 980.085 55.8149 977.145 55.8149" fill="currentColor"/>
<path d="M1018.98 51.0918C1020.64 51.0918 1022.12 51.2285 1023.44 51.5018L1022.66 56.7373C1021.11 56.3957 1019.75 56.2249 1018.58 56.2249C1015.56 56.2249 1012.99 57.4462 1010.85 59.8974C1008.7 62.3401 1007.63 65.3892 1007.63 69.0362V89.0133H1001.99V51.7836H1006.65L1007.3 58.6761H1007.57C1008.96 56.2505 1010.62 54.3886 1012.57 53.0733C1014.52 51.758 1016.67 51.1003 1019 51.1003" fill="currentColor"/>
<path d="M1054.44 78.8497C1054.44 82.3172 1053.15 84.9905 1050.57 86.8695C1047.99 88.7485 1044.36 89.688 1039.69 89.688C1034.75 89.688 1030.9 88.9023 1028.14 87.3478V82.1123C1029.93 83.0176 1031.85 83.735 1033.9 84.256C1035.95 84.777 1037.92 85.0332 1039.83 85.0332C1042.78 85.0332 1045.04 84.5635 1046.62 83.624C1048.21 82.6845 1049 81.2496 1049 79.3279C1049 77.876 1048.37 76.6376 1047.11 75.6041C1045.85 74.5707 1043.4 73.3579 1039.75 71.9486C1036.28 70.6589 1033.82 69.5316 1032.36 68.5664C1030.9 67.6013 1029.81 66.5081 1029.09 65.2867C1028.38 64.0654 1028.03 62.6049 1028.03 60.9053C1028.03 57.8733 1029.26 55.4733 1031.73 53.7224C1034.2 51.963 1037.59 51.0918 1041.9 51.0918C1045.91 51.0918 1049.83 51.9032 1053.66 53.5345L1051.65 58.1209C1047.91 56.5836 1044.52 55.8149 1041.49 55.8149C1038.81 55.8149 1036.79 56.2334 1035.44 57.0704C1034.08 57.9074 1033.39 59.0604 1033.39 60.538C1033.39 61.5373 1033.65 62.3828 1034.15 63.0832C1034.67 63.7835 1035.49 64.4497 1036.62 65.0903C1037.75 65.7223 1039.92 66.6447 1043.14 67.8405C1047.56 69.4461 1050.55 71.0689 1052.1 72.7002C1053.66 74.3315 1054.43 76.3813 1054.43 78.8497" fill="currentColor"/>
<path d="M1063.15 41.6882C1063.15 40.3985 1063.46 39.4505 1064.09 38.8526C1064.73 38.2547 1065.52 37.9473 1066.48 37.9473C1067.44 37.9473 1068.16 38.2547 1068.82 38.8611C1069.48 39.4761 1069.8 40.4156 1069.8 41.6796C1069.8 42.9437 1069.48 43.8917 1068.82 44.5152C1068.16 45.1387 1067.38 45.4462 1066.48 45.4462C1065.53 45.4462 1064.74 45.1387 1064.09 44.5152C1063.46 43.8917 1063.15 42.9437 1063.15 41.6796M1069.27 89.0046H1063.62V51.7749H1069.27V89.0046Z" fill="currentColor"/>
<path d="M1093.26 85.0329C1094.26 85.0329 1095.22 84.956 1096.15 84.8108C1097.09 84.6656 1097.82 84.5119 1098.36 84.3496V88.6628C1097.75 88.9532 1096.85 89.2009 1095.66 89.3888C1094.47 89.5767 1093.39 89.6791 1092.44 89.6791C1085.24 89.6791 1081.63 85.887 1081.63 78.3027V56.1562H1076.3V53.4402L1081.63 51.1L1084.02 43.1484H1087.28V51.7747H1098.09V56.1562H1087.28V78.0635C1087.28 80.3013 1087.81 82.0265 1088.88 83.2308C1089.95 84.435 1091.4 85.0329 1093.26 85.0329Z" fill="currentColor"/>
<path d="M1121.55 89.688C1116.04 89.688 1111.69 88.014 1108.51 84.6575C1105.32 81.3094 1103.73 76.6546 1103.73 70.6931C1103.73 64.7316 1105.21 59.9231 1108.17 56.3957C1111.13 52.8598 1115.1 51.0918 1120.09 51.0918C1124.75 51.0918 1128.44 52.6292 1131.17 55.6953C1133.89 58.7615 1135.25 62.8099 1135.25 67.8405V71.4105H1109.58C1109.69 75.7835 1110.8 79.0973 1112.9 81.3607C1114.99 83.624 1117.95 84.7599 1121.75 84.7599C1125.76 84.7599 1129.73 83.9229 1133.65 82.2489V87.2795C1131.66 88.1421 1129.77 88.7571 1127.99 89.1329C1126.21 89.5087 1124.07 89.6966 1121.55 89.6966M1120.02 55.8149C1117.03 55.8149 1114.64 56.7886 1112.86 58.7359C1111.09 60.6832 1110.03 63.3736 1109.72 66.8241H1129.2C1129.2 63.2711 1128.4 60.5465 1126.82 58.6505C1125.23 56.7629 1122.97 55.8149 1120.03 55.8149" fill="currentColor"/>
<path d="M1156.9 85.0329C1157.9 85.0329 1158.85 84.956 1159.79 84.8108C1160.72 84.6656 1161.45 84.5119 1162 84.3496V88.6628C1161.38 88.9532 1160.49 89.2009 1159.3 89.3888C1158.11 89.5767 1157.03 89.6791 1156.09 89.6791C1148.88 89.6791 1145.27 85.887 1145.27 78.3027V56.1562H1139.94V53.4402L1145.27 51.1L1147.65 43.1484H1150.91V51.7747H1161.73V56.1562H1150.91V78.0635C1150.91 80.3013 1151.44 82.0265 1152.51 83.2308C1153.58 84.435 1155.04 85.0329 1156.9 85.0329Z" fill="currentColor"/>
<path d="M37.3505 122.305C35.9658 121.613 35.3676 120.059 36.1026 118.598C36.8462 117.121 38.453 116.668 39.8291 117.36C41.2052 118.052 41.8205 119.615 41.0855 121.092C40.3505 122.553 38.7265 122.997 37.3505 122.305Z" fill="currentColor"/>
<path d="M51.3588 124.774L52.5469 118.223L54.8289 118.641L53.6836 124.961C53.3417 126.832 53.9999 127.874 55.4528 128.139C56.8973 128.403 57.8802 127.66 58.2221 125.781L59.3674 119.461L61.658 119.88L60.4699 126.43C59.9229 129.445 57.8289 130.692 55.0768 130.188C52.3417 129.693 50.8033 127.788 51.3588 124.774Z" fill="currentColor"/>
<path d="M66.9659 120.136H64.6411V131H66.9659V120.136Z" fill="currentColor"/>
<path d="M69.9487 119.871L79.3163 118.249L79.6667 120.247L76.1282 120.862L77.6838 129.83L75.3761 130.231L73.8205 121.263L70.2992 121.878L69.9487 119.871Z" fill="currentColor"/>
<path d="M93.5471 122.322C92.171 123.014 90.5557 122.553 89.8292 121.093C89.0941 119.615 89.6924 118.061 91.077 117.369C92.4616 116.677 94.077 117.13 94.8206 118.607C95.5471 120.068 94.9317 121.631 93.5471 122.322Z" fill="currentColor"/>
<path d="M88.06 44.9597H100.504C99.7865 43.7298 99.231 42.833 98.3848 41.6885H89.7951C89.3079 40.7405 88.4788 39.4081 88.4788 39.4081H96.5899C95.4446 38.033 94.2053 36.7433 92.8805 35.5391H83.2737L73.2139 41.791L81.9575 48.7689L88.0771 44.9682L88.06 44.9597Z" fill="currentColor"/>
<path d="M31.1368 57.4632C30.265 58.5223 28.9487 59.9914 28.9487 61.0419C28.9487 61.6141 29.4103 62.1351 30.0342 62.1266H38.7094L40.1453 64.5095H84.0086L86.2137 61.2298H105.846C105.709 59.923 105.513 58.6248 105.256 57.3608H94.8633C94.7436 56.6006 94.6069 55.738 94.4701 55.0803H104.718C104.308 53.5174 103.803 51.9971 103.222 50.511H80.4872L61.7094 35.5303H38.2137C36.8889 36.7431 35.6496 38.0328 34.5043 39.3993H42.6325C42.2735 39.9715 41.6581 41.0391 41.3163 41.6797H32.7265C31.8804 42.8242 31.3077 43.7124 30.5812 44.9509H53.4786L58.5556 50.5024H44.3077C39.0342 50.5024 35.265 52.6718 31.1368 57.4547M53.2051 53.6882C54.7607 53.6882 56.0257 54.9522 56.0257 56.5067C56.0257 58.0611 54.7607 59.3252 53.2051 59.3252C51.6496 59.3252 50.3846 58.0611 50.3846 56.5067C50.3846 54.9522 51.6496 53.6882 53.2051 53.6882ZM47.6154 61.1358H41.5898L40.4616 59.2483H33.8034C36.0171 56.2077 39.7522 53.6882 42.9658 53.6882H47.6154V61.1358Z" fill="currentColor"/>
<path d="M105.598 71.5642C105.812 70.1976 105.949 68.7969 106.017 67.3877H73.3334L49.2308 82.3684H28.7607C29.4274 83.8033 30.1197 85.1015 30.9402 86.4424H40.0001C40.3847 87.3477 41.1026 88.7314 41.1026 88.7314H32.4445C33.4018 90.0808 34.3419 91.2765 35.453 92.4979H45.5983L47.7266 95.2651H85.8719L87.0001 93.0701H94.7864C95.359 93.0701 95.7864 92.5918 95.7864 92.0623C95.7864 91.0972 94.5471 89.5086 93.7436 88.5349C90.7522 84.9221 87.171 82.3599 81.7436 82.3599H73.6582L79.6069 76.9022H104.419C104.735 75.8261 104.966 74.9122 105.197 73.8275H94.8291C94.9573 72.9649 95.0599 72.2389 95.1368 71.5471H105.615L105.598 71.5642ZM78.5556 85.2979H83.1368C86.0684 85.2979 89.4274 87.621 91.4701 90.4225H85.3419L84.2992 92.1648H78.5642V85.2979H78.5556ZM75.7864 88.1164C75.7864 89.6709 74.5214 90.9349 72.9659 90.9349C71.4103 90.9349 70.1454 89.6709 70.1454 88.1164C70.1454 86.562 71.4103 85.2979 72.9659 85.2979C74.5214 85.2979 75.7864 86.562 75.7864 88.1164Z" fill="currentColor"/>
<path d="M24.7436 101.645L26.0684 102.901L24.7778 111.86L29.8632 106.505L31.4786 108.034L23.8376 116.079L22.2649 114.584L23.5384 106.138L18.7179 111.219L17.1025 109.691L24.7436 101.645Z" fill="currentColor"/>
<path d="M20.4614 95.4956C22.1794 98.0664 21.3589 101.192 18.6067 103.029C15.846 104.874 12.6495 104.421 10.9315 101.859C9.21356 99.2878 10.0084 96.1533 12.7777 94.3084C15.5298 92.4722 18.7435 92.9334 20.4614 95.4956ZM12.6495 100.714C13.6238 102.166 15.5042 102.286 17.3076 101.081C19.111 99.8771 19.7264 98.1006 18.752 96.6401C17.7691 95.1711 15.8802 95.043 14.0768 96.2472C12.2734 97.4515 11.6665 99.2451 12.6495 100.714Z" fill="currentColor"/>
<path d="M11.7691 88.5774L15.6153 87.0572L16.4614 89.1838L6.14518 93.2664L4.46142 89.0216C3.60672 86.8607 4.18792 84.9561 6.30757 84.1191C7.95715 83.47 9.35886 83.9654 10.2819 85.2636L13.205 80.959L14.1623 83.3761L11.3247 87.45L11.7691 88.5774ZM10.0084 89.2693L9.22211 87.2878C8.79475 86.2116 8.00843 85.8871 7.15373 86.2202C6.28193 86.5618 5.93151 87.3476 6.35031 88.4237L7.13663 90.4052L10.0084 89.2693Z" fill="currentColor"/>
<path d="M9.08526 72.3839L7.42714 72.6573L7.73483 74.5106L5.86303 74.8181L5.21346 70.8978L9.79466 70.1377C11.0596 71.0259 11.7605 72.3925 12.0083 73.8359C12.5639 77.1498 10.5895 79.6181 7.27329 80.1732C3.88868 80.7369 1.21346 78.764 0.666454 75.4843C0.461326 74.2373 0.615172 73.0758 1.05107 72.196L3.33312 71.8202C2.76902 72.8281 2.53825 73.8786 2.75192 75.1427C3.07671 77.0985 4.73483 78.2344 6.88868 77.8757C9.00833 77.5256 10.2904 76.0651 9.9656 74.1263C9.84594 73.4174 9.56389 72.8024 9.0938 72.3839" fill="currentColor"/>
<path d="M0.273504 59.1367L2.29915 59.205L2.10256 64.4577L4.52991 64.5431L4.70085 59.7858L6.66667 59.8542L6.49573 64.62L9.12821 64.7139L9.32479 59.4613L11.3675 59.5381L11.0855 67.0626L0 66.6612L0.273504 59.1367Z" fill="currentColor"/>
<path d="M8.7265 56.4295C9.66667 55.6267 10.4274 54.4993 10.7094 53.2523C10.9573 52.1591 10.812 51.2537 9.96582 51.0658C9.26496 50.9036 8.88889 51.305 8.41026 52.048L7.52137 53.5085C6.62394 54.9946 5.55556 55.8573 3.76069 55.4473C1.75214 54.9861 1.05129 53.0132 1.53847 50.9036C1.83761 49.5797 2.40171 48.5805 3.12821 47.8203L5.33334 48.3242C4.4359 49.1014 3.76069 50.0239 3.47864 51.2708C3.25642 52.2445 3.42736 53.0559 4.1624 53.2267C4.82906 53.3804 5.19659 52.9961 5.61539 52.2957L6.5812 50.7413C7.61539 49.0673 8.78633 48.4609 10.3932 48.8281C12.5214 49.315 13.188 51.3733 12.6667 53.6623C12.3419 55.1057 11.6239 56.2758 10.9573 56.942L8.73505 56.4381L8.7265 56.4295Z" fill="currentColor"/>
<path d="M9.50443 31.6699L21.2309 33.5831L20.0514 35.6158L17.2395 35.129L15.1455 38.7161L16.966 40.9026L15.8036 42.9012L8.35059 33.6599L9.50443 31.6785V31.6699ZM13.8207 37.1105L15.1882 34.7703L11.3164 34.087L13.8207 37.1105Z" fill="currentColor"/>
<path d="M21.1452 27.4075L24.205 30.1918L22.658 31.8829L14.4614 24.4097L17.5469 21.036C19.1195 19.3193 21.0854 19.0118 22.7691 20.5406C24.0768 21.7364 24.2477 23.2054 23.4785 24.6061L28.6324 25.3406L26.8802 27.2623L21.9742 26.5022L21.1623 27.399L21.1452 27.4075ZM19.7435 26.1264L21.1794 24.5549C21.9572 23.7008 21.9059 22.8467 21.2307 22.2232C20.5383 21.5912 19.6836 21.6168 18.8973 22.4709L17.4614 24.0424L19.7435 26.1264Z" fill="currentColor"/>
<path d="M28.5041 17.4316L28.9998 11.1967L31.2562 9.56543L30.6237 16.569L37.8801 18.465L35.581 20.122L29.2733 18.4821L32.2135 22.5561L30.3331 23.9056L23.8374 14.912L25.7177 13.5626L28.5041 17.4316Z" fill="currentColor"/>
<path d="M33.3677 8.34477L41.9403 4.31348L42.8036 6.14122L39.5643 7.6615L43.4275 15.8693L41.3249 16.86L37.4531 8.66078L34.2309 10.1725L33.3677 8.34477Z" fill="currentColor"/>
<path d="M47.6784 2.57359L45.4609 3.24219L48.6656 13.8556L50.8831 13.187L47.6784 2.57359Z" fill="currentColor"/>
<path d="M53.3673 9.33535C54.4528 9.92467 55.7776 10.2236 57.0511 10.0442C58.1622 9.88197 58.9485 9.42076 58.8289 8.56667C58.7263 7.84924 58.222 7.6528 57.3502 7.4649L55.6665 7.16597C53.9571 6.86704 52.769 6.18377 52.4955 4.35602C52.1964 2.31475 53.7947 0.956748 55.94 0.640736C57.2819 0.444296 58.4186 0.606572 59.393 1.01653L59.7178 3.2457C58.6665 2.69055 57.5639 2.39162 56.299 2.57951C55.3161 2.72471 54.6152 3.16884 54.7178 3.92043C54.8203 4.6037 55.299 4.80014 56.1109 4.94534L57.9143 5.28697C59.846 5.64569 60.8374 6.5254 61.0682 8.14817C61.3844 10.309 59.7007 11.667 57.3759 12.0086C55.9058 12.2222 54.5639 11.983 53.7007 11.5901L53.3759 9.33535H53.3673Z" fill="currentColor"/>
<path d="M66.6923 4.87684L70.9829 0.324553L73.7607 0.461207L68.8889 5.53449L73.359 11.5473L70.5299 11.4021L66.6325 6.17506L66.3761 11.1886L64.0684 11.0775L64.6239 0L66.9316 0.119572L66.6923 4.87684Z" fill="currentColor"/>
<path d="M85.3677 3.07432L84.872 5.03872L79.7694 3.74905L79.1711 6.09779L83.8036 7.26789L83.3164 9.18105L78.6925 8.01095L78.0429 10.5647L83.1455 11.8543L82.6497 13.8358L75.3335 11.9825L78.06 1.22949L85.3677 3.07432Z" fill="currentColor"/>
<path d="M92.2222 12.9736L95.6923 7.32812L97.6667 8.53239L94.3248 13.9815C93.3333 15.5957 93.5727 16.8 94.812 17.5686C96.0598 18.3288 97.2393 17.9957 98.2308 16.3815L101.573 10.9324L103.547 12.1366L100.077 17.7822C98.4786 20.3871 96.094 20.78 93.7265 19.3281C91.3675 17.8847 90.6325 15.5701 92.2222 12.9651" fill="currentColor"/>
<path d="M106.539 29.6621L105.231 28.3981L106.59 19.4472L101.462 24.7597L99.8633 23.2138L107.564 15.2451L109.128 16.7483L107.778 25.1867L112.65 20.1476L114.248 21.6849L106.539 29.6621Z" fill="currentColor"/>
<path d="M117.367 25.6796L108.45 32.2754L109.828 34.1357L118.745 27.5399L117.367 25.6796Z" fill="currentColor"/>
<path d="M113.128 39.4079L121.043 30.5938L122.171 32.7546L116.393 39.0065L124.829 37.845L125.932 39.9546L114.171 41.3894L113.128 39.4079Z" fill="currentColor"/>
<path d="M129.376 50.9463L127.436 51.51L125.966 46.4709L123.641 47.1456L124.974 51.7235L123.085 52.2701L121.752 47.6922L119.214 48.4353L120.692 53.4829L118.726 54.0466L116.615 46.821L127.273 43.7207L129.376 50.9463Z" fill="currentColor"/>
<path d="M123.615 59.1964L119.487 59.521L119.308 57.232L130.367 56.3779L130.718 60.9302C130.897 63.2533 129.778 64.8932 127.504 65.0725C125.735 65.2092 124.547 64.3209 124.051 62.8092L119.991 66.0547L119.786 63.4669L123.701 60.4092L123.607 59.205L123.615 59.1964ZM125.504 59.0512L125.667 61.1779C125.761 62.3309 126.419 62.8775 127.333 62.8092C128.273 62.7323 128.838 62.0918 128.744 60.9473L128.581 58.8206L125.504 59.0598V59.0512Z" fill="currentColor"/>
<path d="M122.846 68.9335C121.983 69.8303 121.342 71.0174 121.179 72.29C121.042 73.4003 121.273 74.2886 122.137 74.3996C122.854 74.4936 123.179 74.058 123.59 73.2722L124.333 71.7263C125.077 70.1634 126.06 69.1982 127.889 69.4288C129.931 69.6851 130.82 71.5811 130.555 73.7334C130.384 75.0744 129.923 76.1334 129.273 76.9619L127.034 76.68C127.854 75.8174 128.436 74.8352 128.59 73.5626C128.718 72.5804 128.47 71.7776 127.718 71.6836C127.034 71.5982 126.709 72.0167 126.359 72.7512L125.547 74.3996C124.684 76.1676 123.572 76.8765 121.94 76.68C119.769 76.4067 118.906 74.4253 119.205 72.0936C119.393 70.6246 119.983 69.3861 120.59 68.6602L122.846 68.942V68.9335Z" fill="currentColor"/>
<path d="M118.099 79.0082L117.475 81.2373L128.159 84.2223L128.783 81.9932L118.099 79.0082Z" fill="currentColor"/>
<path d="M127.06 88.0563L123.163 96.6825L121.316 95.8455L122.786 92.5915L114.521 88.8591L115.479 86.7324L123.744 90.4648L125.214 87.2193L127.06 88.0563Z" fill="currentColor"/>
<path d="M116.667 106.351L115.009 105.181L118.043 100.894L116.068 99.5015L113.316 103.388L111.709 102.252L114.462 98.3655L112.299 96.8452L109.274 101.133L107.607 99.9627L111.949 93.8047L121.009 100.202L116.667 106.351Z" fill="currentColor"/>
<path d="M113.906 109.648L107.043 116.156L105.65 114.696L108.239 112.227L102 105.659L103.692 104.054L109.932 110.63L112.513 108.179L113.906 109.648Z" fill="currentColor"/>
<path d="M48.1196 80.3354L59.2478 73.4771L49.4444 67.3789H25.1025C25.1709 68.7198 25.3077 70.2486 25.5042 71.5554H35.9829C36.094 72.5718 36.2906 73.8358 36.2906 73.8358H25.9145C26.1453 74.912 26.3846 75.8685 26.7008 76.9105H42.6154L48.1196 80.3354Z" fill="currentColor"/>
</g>
<defs>
<clipPath id="clip0_985_2286">
<rect width="1162" height="131" fill="white"/>
</clipPath>
</defs>
</svg>
