<svg width="19" height="19" viewBox="0 0 19 19" fill="none" xmlns="http://www.w3.org/2000/svg">
<g id="Youtube">
<path id="Vector" d="M18.8107 5.9001C18.8107 5.9001 18.6252 4.65908 18.0537 4.11416C17.3301 3.39697 16.5211 3.39346 16.15 3.35127C13.493 3.16846 9.50371 3.16846 9.50371 3.16846H9.49629C9.49629 3.16846 5.50703 3.16846 2.85 3.35127C2.47891 3.39346 1.66992 3.39697 0.946289 4.11416C0.374805 4.65908 0.192969 5.9001 0.192969 5.9001C0.192969 5.9001 0 7.35908 0 8.81455V10.1786C0 11.6341 0.189258 13.0931 0.189258 13.0931C0.189258 13.0931 0.374805 14.3341 0.942578 14.879C1.66621 15.5962 2.61621 15.5716 3.03926 15.6489C4.56074 15.786 9.5 15.8282 9.5 15.8282C9.5 15.8282 13.493 15.8212 16.15 15.6419C16.5211 15.5997 17.3301 15.5962 18.0537 14.879C18.6252 14.3341 18.8107 13.0931 18.8107 13.0931C18.8107 13.0931 19 11.6376 19 10.1786V8.81455C19 7.35908 18.8107 5.9001 18.8107 5.9001ZM7.53691 11.8345V6.77549L12.6691 9.31377L7.53691 11.8345Z" fill="currentColor"/>
</g>
</svg>
